<?xml version="1.0" encoding="UTF-8" standalone="no"?>
<!-- Created with Inkscape (http://www.inkscape.org/) -->

<svg
   width="300"
   height="300"
   viewBox="0 0 300 300"
   version="1.1"
   id="svg1"
   inkscape:version="1.4.2 (ebf0e940, 2025-05-08)"
   sodipodi:docname="paw-drawing-white.svg"
   xmlns:inkscape="http://www.inkscape.org/namespaces/inkscape"
   xmlns:sodipodi="http://sodipodi.sourceforge.net/DTD/sodipodi-0.dtd"
   xmlns="http://www.w3.org/2000/svg"
   xmlns:svg="http://www.w3.org/2000/svg">
  <sodipodi:namedview
     id="namedview1"
     pagecolor="#000000"
     bordercolor="#000000"
     borderopacity="0.25"
     inkscape:showpageshadow="2"
     inkscape:pageopacity="0.0"
     inkscape:pagecheckerboard="0"
     inkscape:deskcolor="#d1d1d1"
     inkscape:document-units="px"
     inkscape:zoom="3.97"
     inkscape:cx="154.28212"
     inkscape:cy="157.30479"
     inkscape:window-width="1712"
     inkscape:window-height="1366"
     inkscape:window-x="1725"
     inkscape:window-y="35"
     inkscape:window-maximized="0"
     inkscape:current-layer="layer1"
     showgrid="true"
     showguides="false">
    <inkscape:grid
       id="grid3"
       units="px"
       originx="0"
       originy="0"
       spacingx="0.4"
       spacingy="0.4"
       empcolor="#0099e5"
       empopacity="0.30196078"
       color="#0099e5"
       opacity="0.14901961"
       empspacing="6"
       enabled="true"
       visible="true"
       snapvisiblegridlinesonly="true"
       dotted="false" />
  </sodipodi:namedview>
  <defs
     id="defs1">
    <linearGradient
       id="swatch39"
       inkscape:swatch="solid">
      <stop
         style="stop-color:#000000;stop-opacity:1;"
         offset="0"
         id="stop39" />
    </linearGradient>
    <linearGradient
       id="swatch38"
       inkscape:swatch="solid">
      <stop
         style="stop-color:#000000;stop-opacity:1;"
         offset="0"
         id="stop38" />
    </linearGradient>
    <linearGradient
       id="swatch17"
       inkscape:swatch="solid">
      <stop
         style="stop-color:#7d7d7d;stop-opacity:1;"
         offset="0"
         id="stop17" />
    </linearGradient>
  </defs>
  <g
     inkscape:label="Layer 1"
     inkscape:groupmode="layer"
     id="layer1">
    <path
       id="path27"
       style="fill:#ffffff"
       d="M 150 121.60938 C 139.351 121.60938 128.702 124.07301 120 129 C 89.555427 146.23742 67.34263 184.04006 66 219 C 65.3135 236.87537 74.7831 257.59544 90 267 C 96.80521 271.20585 106.14435 268.51286 114 267 C 124.57599 264.96325 133.42401 257.03675 144 255 C 147.92783 254.24357 152.07217 254.24357 156 255 C 166.57599 257.03675 175.42401 264.96325 186 267 C 193.85565 268.51286 203.19479 271.20585 210 267 C 225.2169 257.59544 234.6865 236.87537 234 219 C 232.65737 184.04006 210.44456 146.23742 180 129 C 171.298 124.07301 160.649 121.60938 150 121.60938 z M 150.35352 132.87305 C 159.43264 132.87305 168.51249 134.97318 175.93164 139.17383 C 201.88804 153.8701 220.826 186.10013 221.9707 215.90625 C 222.556 231.14642 214.48142 248.81195 201.50781 256.83008 C 195.70583 260.41591 187.74443 258.11992 181.04688 256.83008 C 172.03 255.09359 164.48562 248.3361 155.46875 246.59961 C 152.11996 245.9547 148.58707 245.9547 145.23828 246.59961 C 136.22141 248.3361 128.67703 255.09359 119.66016 256.83008 C 112.9626 258.11992 105.0012 260.41591 99.199219 256.83008 C 86.225605 248.81195 78.151032 231.14642 78.736328 215.90625 C 79.881027 186.10013 98.818984 153.8701 124.77539 139.17383 C 132.19454 134.97318 141.2744 132.87305 150.35352 132.87305 z " />
    <path
       style="fill:#ffffff"
       d="M 168,185.12695 V 192 L 203.29492,202.375 168,212.61719 v 6.87304 l 42.35352,-13.74609 v -6.87305 z"
       id="path10" />
    <path
       style="fill:#ffffff"
       d="m 132.70703,185.12695 -42.353514,13.74414 v 6.87305 l 42.353514,13.74609 v -6.87304 L 97.412109,202.375 132.70703,192 Z"
       id="path9" />
    <path
       style="fill:#ffffff"
       d="m 153.88281,171.38086 -14.11719,68.72656 h 7.0586 l 14.11719,-68.72656 z"
       id="path8" />
    <path
       id="path25"
       style="fill:#ffffff"
       d="M 225.58398 104.88867 C 222.15044 104.88867 218.7178 105.52094 216 106.7832 C 209.92281 109.60571 208.05742 115.96238 206.41602 121.1875 C 204.94792 125.86098 204.94792 130.92027 206.41602 135.59375 C 208.05741 140.81887 209.92281 147.1775 216 150 C 221.4356 152.52454 229.73432 152.52454 235.16992 150 C 241.2471 147.1775 243.11252 140.81887 244.75391 135.59375 C 246.22201 130.92027 246.22201 125.86098 244.75391 121.1875 C 243.11252 115.96238 241.2471 109.60571 235.16992 106.7832 C 232.45212 105.52094 229.01753 104.88867 225.58398 104.88867 z M 225.58398 111.67773 C 228.02566 111.67773 230.4677 112.12777 232.40039 113.02539 C 235.74132 114.57707 237.29382 117.6313 238.36523 120.6543 L 211.43945 131.42383 C 210.95329 128.71563 211.12477 125.9065 211.95312 123.26953 C 213.12036 119.55382 214.4479 115.03255 218.76953 113.02539 C 220.70223 112.12777 223.1423 111.67773 225.58398 111.67773 z M 239.8418 126.0625 C 240.18214 128.55073 239.97356 131.10462 239.2168 133.51367 C 238.04957 137.22937 236.72201 141.75066 232.40039 143.75781 C 228.535 145.55307 222.63492 145.55307 218.76953 143.75781 C 215.66921 142.31789 214.10965 139.58333 213.04492 136.78125 L 239.8418 126.0625 z " />
    <path
       style="fill:#ffffff;stroke-width:2;stroke-dasharray:none;stroke:none;stroke-opacity:1;fill-opacity:1"
       d="m 72,75 c 0,0 -4.34619,3.705461 -6,6 -2.614904,3.627985 -4.548629,7.769926 -6,12 -1.654818,4.823026 -3,15 -3,15 0,0 1.85273,-2.17309 3,-3 1.813993,-1.30745 3.823749,-2.48626 6,-3 1.946498,-0.45951 6,0 6,0 0,0 -3.121302,-9.902424 -3,-15 0.09809,-4.121939 3,-12 3,-12 z"
       id="path20" />
    <path
       style="fill:#ffffff"
       d="m 74.416016,104.88867 c -3.433548,0 -6.868138,0.63227 -9.585938,1.89453 -6.077184,2.82251 -7.942593,9.17918 -9.583984,14.4043 -1.468105,4.67348 -1.468105,9.73277 0,14.40625 1.641391,5.22512 3.5068,11.58375 9.583984,14.40625 5.435599,2.52454 13.734323,2.52454 19.169922,0 6.07719,-2.8225 7.942594,-9.18113 9.583984,-14.40625 1.4681,-4.67348 1.4681,-9.73277 0,-14.40625 C 91.942584,115.96238 90.07719,109.60571 84,106.7832 c -2.717799,-1.26226 -6.150437,-1.89453 -9.583984,-1.89453 z"
       id="path24" />
    <path
       id="path19"
       style="fill:#ffffff"
       d="M 179.14062 72.466797 C 175.7071 72.466797 172.27444 73.099068 169.55664 74.361328 C 163.47945 77.183838 161.61406 83.540505 159.97266 88.765625 C 158.50456 93.439105 158.50456 98.498395 159.97266 103.17188 C 161.61405 108.397 163.47945 114.75563 169.55664 117.57812 C 174.99224 120.10268 183.29096 120.10268 188.72656 117.57812 C 194.80374 114.75562 196.66916 108.39698 198.31055 103.17188 C 199.77865 98.498395 199.77865 93.439105 198.31055 88.765625 C 196.66916 83.540505 194.80374 77.183838 188.72656 74.361328 C 186.00876 73.099068 182.57417 72.466797 179.14062 72.466797 z M 179.14062 79.255859 C 181.5823 79.255859 184.02434 79.705896 185.95703 80.603516 C 189.29796 82.155196 190.85045 85.209422 191.92188 88.232422 L 164.99609 99.001953 C 164.50993 96.293753 164.68141 93.484626 165.50977 90.847656 C 166.67701 87.131946 168.00454 82.610676 172.32617 80.603516 C 174.25887 79.705896 176.69895 79.255859 179.14062 79.255859 z M 193.39844 93.640625 C 193.73878 96.128855 193.5302 98.682736 192.77344 101.0918 C 191.60621 104.8075 190.27865 109.32879 185.95703 111.33594 C 182.09164 113.1312 176.19156 113.1312 172.32617 111.33594 C 169.22585 109.89602 167.66629 107.16145 166.60156 104.35938 L 193.39844 93.640625 z " />
    <path
       style="fill:#ffffff"
       d="m 120.58594,72.466797 c -3.43355,0 -6.86814,0.632271 -9.58594,1.894531 -6.07719,2.82251 -7.94259,9.179177 -9.58398,14.404297 -1.468108,4.67348 -1.468108,9.732765 0,14.406255 1.64139,5.22512 3.50679,11.58375 9.58398,14.40624 5.4356,2.52456 13.73432,2.52456 19.16992,0 6.07719,-2.8225 7.9426,-9.18112 9.58399,-14.40624 1.4681,-4.67349 1.4681,-9.732775 0,-14.406255 -1.6414,-5.22512 -3.5068,-11.581787 -9.58399,-14.404297 -2.7178,-1.26226 -6.15044,-1.894531 -9.58398,-1.894531 z"
       id="path18" />
    <path
       style="fill:#ffffff;stroke-width:2;stroke-dasharray:none;stroke:none;stroke-opacity:1"
       d="m 187.55664,42.578125 -3,6 v 3 h 3 v 12 h -3 v 6 h 12 v -6 h -3 v -21 z"
       id="path17" />
    <path
       style="fill:#ffffff;fill-opacity:1;stroke:none;stroke-width:2;stroke-dasharray:none;stroke-opacity:1"
       d="m 119.04023,43.364063 c 0,0 -4.34619,3.705461 -6,6 -2.6149,3.627985 -4.54863,7.769926 -6,12 -1.65482,4.823026 -3,15 -3,15 0,0 1.85273,-2.17309 3,-3 1.814,-1.30745 3.82375,-2.48626 6,-3 1.9465,-0.45951 6,0 6,0 0,0 -3.1213,-9.902424 -3,-15 0.0981,-4.121939 3,-12 3,-12 z"
       id="path14" />
    <path
       style="fill:#ffffff;stroke:none;stroke-width:2;stroke-dasharray:none;stroke-opacity:1"
       d="m 232.8,75.000001 -3,6 v 3 h 3 v 12 h -3 v 6.000009 h 12 v -6.000009 h -3 v -21 z"
       id="path22" />
  </g>
</svg>
